<?xml version="1.0" standalone="no"?><!DOCTYPE svg PUBLIC "-//W3C//DTD SVG 1.1//EN" "http://www.w3.org/Graphics/SVG/1.1/DTD/svg11.dtd"><svg t="1678638934352" class="icon" viewBox="0 0 1024 1024" version="1.1" xmlns="http://www.w3.org/2000/svg" p-id="4852" xmlns:xlink="http://www.w3.org/1999/xlink" width="128" height="128"><path d="M603.136 18.432c-37.888-7.168-75.776-9.216-112.64-7.168-45.056 2.048-84.992 31.744-97.28 75.776C359.424 204.8 254.976 295.936 128 307.2c-48.128 4.096-88.064 36.864-100.352 82.944C14.336 443.392 9.216 499.712 14.336 559.104c21.504 246.784 224.256 442.368 472.064 455.68 300.032 16.384 546.816-230.4 529.408-531.456C1002.496 252.928 830.464 59.392 603.136 18.432z" fill="#FF66A1" p-id="4853"></path><path d="M580.608 676.864c-20.48 0-35.84-16.384-35.84-35.84V204.8c0-20.48 16.384-35.84 35.84-35.84 20.48 0 35.84 16.384 35.84 35.84v435.2c1.024 20.48-15.36 36.864-35.84 36.864z" fill="#F3F4F2" p-id="4854"></path><path d="M472.064 676.864m-145.408 0a145.408 145.408 0 1 0 290.816 0 145.408 145.408 0 1 0-290.816 0Z" fill="#FFFFFF" p-id="4855"></path><path d="M758.784 342.016c-12.288 15.36-35.84 18.432-51.2 5.12L558.08 225.28c-15.36-12.288-18.432-35.84-5.12-51.2 12.288-15.36 35.84-18.432 51.2-5.12l150.528 121.856c14.336 13.312 17.408 35.84 4.096 51.2z" fill="#F7F9F4" p-id="4856"></path></svg>