<svg xmlns="http://www.w3.org/2000/svg" xmlns:xlink="http://www.w3.org/1999/xlink" id="elV2ir0mvAO1" viewBox="0 0 1024 1024" shape-rendering="geometricPrecision" text-rendering="geometricPrecision">
<style><![CDATA[
#elV2ir0mvAO3_tr {animation: elV2ir0mvAO3_tr__tr 3000ms linear infinite reverse forwards}@keyframes elV2ir0mvAO3_tr__tr { 0% {transform: translate(525.004852px,485.259431px) rotate(0deg)} 100% {transform: translate(525.004852px,485.259431px) rotate(360deg)}}
]]></style>
<path d="M271.9,894.2c-4.4,0-8.6-1.3-12.3-3.8l-15.5-10.5c-4.9-3.3-8.2-8.3-9.3-14.1s.1-11.6,3.4-16.5L501.9,459.6c6.8-10,20.5-12.7,30.5-5.9l15.5,10.5c8.9,6.1,12.2,18,7.5,27.7-.5,1-1,2-1.6,2.9L295,877.4l-4.8,7.2c-3.3,4.9-8.3,8.2-14.1,9.3-1.4.2-2.9.3-4.2.3ZM520.1,462c-3.2,0-6.4,1.5-8.3,4.4L248.1,856.1c-1.5,2.2-2,4.9-1.5,7.5s2,4.9,4.2,6.4l15.5,10.5c2.2,1.5,4.9,2,7.5,1.5s4.9-2,6.4-4.2l4.8-7.2L463.1,607.4L543.9,488c.3-.4.5-.8.7-1.3c2.1-4.5.7-9.9-3.4-12.6l-15.5-10.5c-1.7-1.1-3.7-1.6-5.6-1.6Z" transform="matrix(-1 0 0 1 1052.359286 3.462522)" fill="#91000a"/><g id="elV2ir0mvAO3_tr" transform="translate(525.004852,485.259431) rotate(360)"><g transform="translate(-525.004852,-485.259429)"><path d="M845.4,527.6c-2.7,16.1-18.6,26.4-34.4,22.3L547.2,481.4c-17.7-4.6-26.2-24.7-17.2-40.6c41.3-72.9,63.9-115.1,156.4-91c4.3,1.1,8.5,2.3,12.7,3.6-79.8-19-99.8,17.1-135.7,78.3-8,13.7,0,31.2,16.2,35.4l239.2,62.1c11.1,2.9,22.1-1.6,27.7-10.1-.2,2.9-.6,5.7-1.1,8.5Z" fill="#ffc500"/><path d="M846.5,519.2c-5.6,8.5-16.6,13-27.7,10.1L579.6,467.2c-16.2-4.2-24.2-21.8-16.2-35.4c35.9-61.3,55.8-97.3,135.7-78.3c85.4,26.2,154.4,90,147.4,165.7Z" fill="#ffeb00"/><path d="M818,556.8c-2.9,0-5.7-.4-8.5-1.1L545.7,487.2c-10.2-2.7-18.5-9.8-22.6-19.5-4.1-9.8-3.5-20.6,1.7-29.9l1.6-2.8c20.5-36.1,36.7-64.7,60-81.6c25.2-18.3,56.5-21.2,101.5-9.4c4.6,1.2,8.9,2.4,13,3.7c44.3,13.7,83.7,37.1,110.9,66c30.1,31.9,44.1,68.6,40.7,106.1-.3,2.9-.6,5.9-1.1,8.8-1.5,9.3-7,17.6-14.9,22.8-5.6,3.5-12,5.4-18.5,5.4ZM640.5,348.9c-18.8,0-34,4.7-47.1,14.1-21.2,15.4-36.8,42.9-56.6,77.8l-1.6,2.8c-3.4,6-3.8,13-1.1,19.3s8,10.9,14.6,12.6L812.5,544c6,1.6,12.2.6,17.4-2.8s8.6-8.6,9.6-14.7c.4-2.7.8-5.3,1-7.9c3.1-34-9.8-67.4-37.5-96.8-25.9-27.4-63.4-49.7-105.7-62.8-3.9-1.2-8-2.4-12.4-3.6-16.8-4.3-31.5-6.5-44.4-6.5Z" fill="#91000a"/><path d="M510.7,493.4c11.3,7.9,15.5,23.6,8.2,36.5-41.3,72.9-63.9,115.1-156.4,91-94.3-24.6-171.6-94.5-157.9-177.6c2.7-16.1,18.6-26.4,34.4-22.3l12.5,3.3c-9.8,2.1-18,10-19.7,20.6-12.6,75.8,64.5,125.5,149.8,150.4c60.9,17.7,84.4-11.1,122.1-77.6c5.5-9.4,9.4-18.2,7-24.3Z" fill="#ffc500"/><path d="M510.7,493.4c2.4,6.1-1.5,14.8-6.8,24.3-37.7,66.5-61.2,95.3-122.1,77.6-85.4-24.8-162.4-74.6-149.8-150.4c1.8-10.7,9.9-18.5,19.7-20.6l250.1,64.9c3.2,1,6.2,2.4,8.9,4.2Z" fill="#ffeb00"/><path d="M408.6,633.8c-14,0-29.7-2.3-47.6-7-49-12.8-92.4-37.1-122.3-68.5-33-34.7-46.8-74.7-40-115.8c1.5-9.3,7-17.6,14.9-22.8c8-5.2,17.8-6.8,27-4.4l12.5,3.3l250.1,64.9c4,1,7.6,2.7,10.9,5.1c14.3,10,18.6,29.1,9.9,44.3l-1.6,2.8c-20.5,36.2-36.7,64.7-60,81.6-15.1,11-32.5,16.5-53.8,16.5ZM232,426.2c-4.2,0-8.2,1.2-11.8,3.6-5.2,3.4-8.6,8.6-9.6,14.7-4.3,26-1.4,65.4,36.8,105.6c28.3,29.8,69.7,52.9,116.6,65.2c41.2,10.7,69.4,8.4,91.5-7.6c21.2-15.4,36.8-42.9,56.6-77.8l1.6-2.8c5.6-9.8,2.8-22.1-6.4-28.6-2.1-1.5-4.5-2.6-7-3.3L250.2,430.3L237.7,427c-2-.6-3.9-.8-5.7-.8Z" fill="#91000a"/><path d="M520.3,462.1c-.1.2-.1.5-.2.7-8.4,1.5-18.6-.7-26.6-5.2-67.2-38.1-98.3-68.6-81.4-132.8C435,238,500.2,164.9,576.7,177.6c4.3.7,8.1,2.4,11.3,4.9c1.7,5,2.1,10.5.6,16L520.3,462.1Z" fill="#ff2b3f"/><path d="M588.1,182.5c-3.2-2.5-7-4.2-11.3-4.9C500.3,164.9,435,238,412.2,324.8c-16.9,64.2,14.2,94.7,81.4,132.8c7.9,4.5,18.2,6.7,26.6,5.2-5,17.2-24.8,25.3-40.4,16.4-72.9-41.3-115.1-63.9-91-156.4c24.6-94.3,94.7-172.5,177.8-158.7c10.2,1.8,18.3,9.1,21.5,18.4Z" fill="#d8000f"/><path d="M493.3,488.9c-5.8,0-11.5-1.5-16.7-4.4l-2.8-1.6c-36.2-20.5-64.7-36.7-81.6-60-18.3-25.2-21.2-56.5-9.5-101.5c12.8-49.1,37.1-92.6,68.6-122.7c34.8-33.3,74.9-47.2,116-40.4c12.2,2,22.4,10.6,26.4,22.4c2.2,6.3,2.4,13,.8,19.5L526.1,463.7c-.1.3-.2.7-.3,1-2.9,9.9-10.1,17.9-19.7,21.8-4.1,1.5-8.5,2.4-12.8,2.4Zm53.9-320.4c-38.3,0-68.2,20.3-87.5,38.8-29.9,28.6-53.1,70.1-65.3,117.1-10.7,41.2-8.4,69.4,7.6,91.5c15.4,21.2,42.9,36.8,77.8,56.6l2.8,1.6c5.8,3.3,12.8,3.8,19,1.2c6.2-2.5,10.9-7.7,12.7-14.1l.1-.2c0-.1.1-.3.1-.4l68.4-263.5c1.1-4.2.9-8.5-.5-12.6-2.6-7.6-9.1-13.1-17-14.5-6.3-1-12.3-1.5-18.2-1.5Z" fill="#91000a"/><path d="M659.8,647c-1.5,5.7-3.1,11.3-4.9,16.9-27.1,72.6-82.3,127.2-145.5,117.1-13.8-2.2-22.4-16.5-18.7-31l61.7-237.5c2.7-10.3,10.8-17.3,19.8-18.9c70.6,40,111.3,62.4,87.6,153.4Z" fill="#ff2b3f"/><path d="M509.3,780.9c63.3,10.1,118.4-44.4,145.5-117.1-28.1,86.6-94.9,155.4-173,142.5-16.1-2.7-26.4-18.6-22.3-34.4l68.3-263.2c4.6-17.7,24.7-26.2,40.6-17.2l3.6,2.1c-9,1.6-17.2,8.6-19.8,18.9L490.5,750c-3.6,14.4,5,28.7,18.8,30.9Z" fill="#d8000f"/><path d="M500.8,813.9c-6.6,0-13.3-.5-19.9-1.7-9.3-1.6-17.6-7-22.8-14.9-5.2-8-6.7-17.8-4.4-26.9L522,507.2c2.7-10.2,9.8-18.5,19.5-22.6c9.8-4.1,20.6-3.5,29.9,1.7l1.3.8c.8.4,1.5.9,2.3,1.3l1.1.6c35.5,20.1,63.6,36,80.2,59c17.9,24.8,20.7,55.8,9.1,100.5-1.5,5.8-3.2,11.6-5,17.2-14.7,45.1-39.3,84.6-69.5,111.2-27.6,24.4-58.4,37-90.1,37Zm54-320c-2.9,0-5.8.6-8.5,1.7-6.3,2.7-10.9,8-12.6,14.6L465.4,773.4c-1.6,6-.6,12.2,2.8,17.4s8.6,8.6,14.7,9.6c6,1,11.9,1.5,17.9,1.5c28.8,0,57-11.6,82.4-34c28.6-25.2,52-62.8,66-105.9c1.8-5.4,3.4-11,4.8-16.5c10.6-40.8,8.4-68.7-7.2-90.4-15.1-20.9-42.1-36.2-76.4-55.6l-1.2-.7c-.7-.4-1.5-.9-2.2-1.3l-1.4-.8c-3.4-1.9-7.1-2.8-10.8-2.8Z" fill="#91000a"/><path d="M634.6,462.2c6.5,0,6.5-10.1,0-10.1s-6.5,10.1,0,10.1Zm59.2-17c.3-.2.6-.4,1-.6c1.6-.9,2.8-2.6,3.3-4.3.3-1,.3-1.9.1-2.9c0-1-.3-1.8-.9-2.7-1-1.5-2.5-2.9-4.3-3.3-1.9-.4-3.8-.3-5.5.7-.3.2-.6.4-1,.6-1.6.9-2.8,2.6-3.3,4.3-.3,1-.3,1.9-.1,2.9c0,1,.3,1.8.9,2.7c1,1.5,2.5,2.9,4.3,3.3c1.9.5,3.8.3,5.5-.7Zm50.4,51.6c9.5,0,9.5-14.8,0-14.8-9.6,0-9.6,14.8,0,14.8Zm55.5-42.6c0-.2,0-.4-.1-.6-.9,2.1-1.7,4.2-2.6,6.3l.1-.1c1.2-1.2,2-2.6,2.4-4.1.4-1.2.4-2.5.2-3.7-.1-1.3-.4-2.4-1.1-3.5-.8-1.4-2-2.5-3.4-3.4-.8-.4-1.6-.7-2.4-1-1.6-.4-3.3-.4-4.9,0-.8.2-.3-.2-2.2.9-2.3,1.4-1.3.9-1.9,1.5-1.2,1.2-1.9,2.5-2.4,4.1-.2.9-.3,1.7-.3,2.6c0,1.7.4,3.3,1.3,4.7.6,1.1,1.4,2,2.4,2.6.9.8,2,1.4,3.2,1.7c1.7.4,3.3.4,5,0h.1c-2.3-.3-4.5-.6-6.8-.9.2.1.4.2.5.4c1.3.8,2.8,1.2,4.3,1.2s3-.4,4.3-1.2s2.3-1.8,3.1-3.1c.8-1.4,1.2-2.8,1.2-4.4ZM589,417.4c6.6,0,6.6-10.2,0-10.2-6.5,0-6.5,10.2,0,10.2Zm60.1-35.5c.1-1.3-.1-2.5-.6-3.7-.3-1.2-.9-2.2-1.8-3.1s-1.9-1.5-3.1-1.8-2.5-.3-3.7,0-2.2.9-3.1,1.8c-1,.8-1.8,1.7-2.3,2.9-.7,1.2-1.1,2.5-1.1,3.9s.4,2.7,1.1,3.9c1.1,1.7,2.7,3,4.7,3.6c1.9.5,4.3.2,6-.8c1.2-.7,2.1-1.6,2.8-2.8.8-1.2,1.1-2.5,1.1-3.9Z" fill="#fff"/><path d="M421.3,512.5c6.5,0,6.5-10.1,0-10.1s-6.5,10.1,0,10.1Zm-59.2,6.8c-.3.2-.6.4-1,.6-1.6.9-2.8,2.6-3.3,4.3-.3,1-.3,1.9-.1,2.9c0,1,.3,1.8.9,2.7c1,1.5,2.5,2.9,4.3,3.3c1.9.4,3.8.3,5.5-.7.3-.2.6-.4,1-.6c1.6-.9,2.8-2.6,3.3-4.3.3-1,.3-1.9.1-2.9c0-1-.3-1.8-.9-2.7-1-1.5-2.5-2.9-4.3-3.3-1.9-.4-3.8-.2-5.5.7Zm-50.4-36.7c9.5,0,9.5-14.8,0-14.8s-9.5,14.8,0,14.8Zm-55.5,27.8c0,.2,0,.4.1.6.9-2.1,1.7-4.2,2.6-6.3l-.1.1c-1.2,1.2-2,2.6-2.4,4.1-.4,1.2-.4,2.5-.2,3.7.1,1.3.4,2.4,1.1,3.5.8,1.4,2,2.5,3.4,3.4.8.4,1.6.7,2.4,1c1.6.4,3.3.4,4.9,0c.8-.2.3.2,2.2-.9c2.3-1.4,1.3-.9,1.9-1.5c1.2-1.2,1.9-2.5,2.4-4.1.2-.9.3-1.7.3-2.6c0-1.7-.4-3.3-1.3-4.7-.6-1.1-1.4-2-2.4-2.6-.9-.8-2-1.4-3.2-1.7-1.7-.4-3.3-.4-5,0h-.1c2.3.3,4.5.6,6.8.9-.2-.1-.4-.2-.5-.4-1.3-.8-2.8-1.2-4.3-1.2s-3,.4-4.3,1.2-2.3,1.8-3.1,3.1c-.8,1.4-1.2,2.8-1.2,4.4Zm210.6,47c6.6,0,6.6-10.2,0-10.2-6.5-.1-6.5,10.2,0,10.2Zm-60.1,25.3c-.1,1.3.1,2.5.6,3.7.3,1.2.9,2.2,1.8,3.1s1.9,1.5,3.1,1.8s2.5.3,3.7,0s2.2-.9,3.1-1.8c1-.8,1.8-1.7,2.3-2.9.7-1.2,1.1-2.5,1.1-3.9s-.4-2.7-1.1-3.9c-1.1-1.7-2.7-3-4.7-3.6-1.9-.5-4.3-.2-6,.8-1.2.7-2.1,1.6-2.8,2.8s-1.1,2.5-1.1,3.9Z" fill="#fff"/><path d="M497.6,378.5c6.5,0,6.5-10.1,0-10.1s-6.5,10.1,0,10.1Zm-11.9-64.3c-.2-.3-.4-.6-.6-1-.9-1.6-2.6-2.8-4.3-3.3-1-.3-1.9-.3-2.9-.1-1,0-1.8.3-2.7.9-1.5,1-2.9,2.5-3.3,4.3-.4,1.9-.3,3.8.7,5.5.2.3.4.6.6,1c.9,1.6,2.6,2.8,4.3,3.3c1,.3,1.9.3,2.9.1c1,0,1.8-.3,2.7-.9c1.5-1,2.9-2.5,3.3-4.3.5-1.8.3-3.8-.7-5.5Zm44.1-42.9c9.5,0,9.5-14.8,0-14.8s-9.5,14.8,0,14.8Zm-35.1-62.9c-.2,0-.4,0-.6.1c2.1.9,4.2,1.7,6.3,2.6l-.1-.1c-1.2-1.2-2.6-2-4.1-2.4-1.2-.4-2.5-.4-3.7-.2-1.3.1-2.4.4-3.5,1.1-1.4.8-2.5,2-3.4,3.4-.4.8-.7,1.6-1,2.4-.4,1.6-.4,3.3,0,4.9.2.8-.2.3.9,2.2c1.4,2.3.9,1.3,1.5,1.9c1.2,1.2,2.5,1.9,4.1,2.4.9.2,1.7.3,2.6.3c1.7,0,3.3-.4,4.7-1.3c1.1-.6,2-1.4,2.6-2.4.8-.9,1.4-2,1.7-3.2.4-1.7.4-3.3,0-5v-.1c-.3,2.3-.6,4.5-.9,6.8.1-.2.2-.4.4-.5.8-1.3,1.2-2.8,1.2-4.3s-.4-3-1.2-4.3-1.8-2.3-3.1-3.1c-1.4-.8-2.9-1.2-4.4-1.2ZM452.8,424.1c6.6,0,6.6-10.2,0-10.2s-6.6,10.2,0,10.2Zm-30.4-65.2c-1.3-.1-2.5.1-3.7.6-1.2.3-2.2.9-3.1,1.8s-1.5,1.9-1.8,3.1-.3,2.5,0,3.7.9,2.2,1.8,3.1c.8,1,1.7,1.8,2.9,2.3c1.2.7,2.5,1.1,3.9,1.1s2.7-.4,3.9-1.1c1.7-1.1,3-2.7,3.6-4.7.5-1.9.2-4.3-.8-6-.7-1.2-1.6-2.1-2.8-2.8s-2.5-1.1-3.9-1.1Z" fill="#fff"/><path d="M546.5,597.2c6.5,0,6.5-10.1,0-10.1s-6.5,10.1,0,10.1Zm11.9,54.2c.2.3.4.6.6,1c.9,1.6,2.6,2.8,4.3,3.3c1,.3,1.9.3,2.9.1c1,0,1.8-.3,2.7-.9c1.5-1,2.9-2.5,3.3-4.3.4-1.9.3-3.8-.7-5.5-.2-.3-.4-.6-.6-1-.9-1.6-2.6-2.8-4.3-3.3-1-.3-1.9-.3-2.9-.1-1,0-1.8.3-2.7.9-1.5,1-2.9,2.5-3.3,4.3s-.3,3.8.7,5.5Zm-41,58.5c9.5,0,9.5-14.8,0-14.8-9.6,0-9.6,14.8,0,14.8Zm32,47.3c.2,0,.4,0,.6-.1-2.1-.9-4.2-1.7-6.3-2.6l.1.1c1.2,1.2,2.6,2,4.1,2.4c1.2.4,2.5.4,3.7.2c1.3-.1,2.4-.4,3.5-1.1c1.4-.8,2.5-2,3.4-3.4.4-.8.7-1.6,1-2.4.4-1.6.4-3.3,0-4.9-.2-.8.2-.3-.9-2.2-1.4-2.3-.9-1.3-1.5-1.9-1.2-1.2-2.5-1.9-4.1-2.4-.9-.2-1.7-.3-2.6-.3-1.7,0-3.3.4-4.7,1.3-1.1.6-2,1.4-2.6,2.4-.8.9-1.4,2-1.7,3.2-.4,1.7-.4,3.3,0,5v.1c.3-2.3.6-4.5.9-6.8-.1.2-.2.4-.4.5-.8,1.3-1.2,2.8-1.2,4.3s.4,3,1.2,4.3s1.8,2.3,3.1,3.1c1.5.8,2.9,1.2,4.4,1.2Zm41.9-205.5c6.6,0,6.6-10.2,0-10.2s-6.6,10.2,0,10.2Zm30.5,55c1.3.1,2.5-.1,3.7-.6c1.2-.3,2.2-.9,3.1-1.8s1.5-1.9,1.8-3.1.3-2.5,0-3.7-.9-2.2-1.8-3.1c-.8-1-1.7-1.8-2.9-2.3-1.2-.7-2.5-1.1-3.9-1.1s-2.7.4-3.9,1.1c-1.7,1.1-3,2.7-3.6,4.7-.5,1.9-.2,4.3.8,6c.7,1.2,1.6,2.1,2.8,2.8s2.5,1.1,3.9,1.1Z" fill="#fff"/><path d="M683.3,391.5c43.3-3.9,43,9.6,40.8,15.8l-1.2-.4c0,0-74.3-6.9-149.4,57-3.1-5.6-7.4-15.7-3.1-23.5c6.3-11.4,57.5-43.8,112.9-48.9Z" fill="#ffc500"/><path d="M602.8,682.9v.6c-8.2,2.4-19.4-1.3-23.8-34.4-7.7-57.8-37.3-88.5-48.7-94.9-7.2-4,2.4-17.3,10.4-26.5c69.3,77,62.1,155.2,62.1,155.2Z" fill="#d8000f"/><path d="M476.2,506.5c2.8,5.8,5.6,14.3,1.8,21.1-6.3,11.5-57.5,43.9-112.9,48.9-40,3.6-42.8-7.7-41.2-14.2l3.5.8c0-.1,74,6.7,148.8-56.6Z" fill="#ffc603"/><path d="M447.2,285.5c-.4,4.7-4.7,76.6,57.1,149.2-5.6,3.1-15.8,7.5-23.6,3.2-11.5-6.3-43.9-57.5-48.9-112.9-4-43.8,9.9-43,16-40.7l-.6,1.2Z" fill="#d8000f"/><path d="M558.1,484c-1.5,0-3.1-.6-4.3-1.8-2.3-2.4-2.3-6.2.1-8.5c5.2-5.1,10.4-9.9,15.6-14.4c39.7-33.8,79.2-47.9,105.4-53.8c28.6-6.4,47.6-4.7,48.4-4.7c3.3.3,5.7,3.2,5.4,6.5s-3.2,5.7-6.5,5.4c-.3,0-18.4-1.5-45.2,4.5-24.7,5.6-62.1,19-99.7,51.1-5,4.3-10.1,8.9-15,13.8-1.1,1.3-2.7,1.9-4.2,1.9Zm-224,85.2c-4.4,0-6.9-.2-7.2-.2-3.3-.3-5.7-3.2-5.4-6.5s3.2-5.7,6.5-5.4c.2,0,18.3,1.5,45-4.5c24.6-5.6,61.8-18.8,99.4-50.6c5.3-4.5,10.5-9.3,15.6-14.2c2.4-2.3,6.2-2.3,8.5,0c2.3,2.4,2.3,6.2,0,8.5-5.3,5.2-10.7,10.2-16.3,14.9-39.6,33.5-78.9,47.5-105,53.3-18.6,4-33,4.7-41.1,4.7ZM602.8,688.9h-.6c-3.3-.3-5.7-3.2-5.4-6.5c0-.3,1.6-19.4-5-47.3-6.1-25.8-20.7-64.6-55.5-103.2-2.9-3.2-5.8-6.4-8.8-9.4-2.3-2.4-2.3-6.2,0-8.5c2.4-2.3,6.2-2.3,8.5,0c3.1,3.1,6.2,6.4,9.2,9.8c36.6,40.7,52,81.8,58.4,109.1c7,29.8,5.3,49.8,5.2,50.6-.3,3-3,5.4-6,5.4Zm-84.5-233c-1.5,0-3.1-.6-4.3-1.8-4.9-5-9.8-10.2-14.3-15.6-26.4-31-44.3-65.5-53.1-102.5-6.8-28.6-5.5-48.8-5.4-51v-.1c.2-3.3,3-5.8,6.4-5.6c3.3.2,5.8,3,5.6,6.4v.2c-.2,3.1-4.9,73.9,55.6,144.9c4.4,5.1,9,10.1,13.7,14.9c2.3,2.4,2.3,6.2,0,8.5-1.1,1.1-2.6,1.7-4.2,1.7Z" fill="#91000a"/><path d="M539.2,427.1c31.3,8.3,50,40.4,41.7,71.7s-40.4,50-71.7,41.7-50-40.4-41.7-71.7s40.4-50,71.7-41.7ZM578,491.4c6.7-25.4-8.5-51.4-33.8-58.1-25.4-6.7-51.4,8.5-58.1,33.8-6.7,25.4,8.4,51.4,33.8,58.1s51.4-8.4,58.1-33.8Z" fill="#d3d3d3"/><path d="M544.2,433.3c25.4,6.7,40.5,32.7,33.8,58.1s-32.7,40.5-58.1,33.8-40.6-32.7-33.8-58.1c6.6-25.4,32.7-40.5,58.1-33.8Z" fill="#fff"/><path d="M524.4,548.5c-5.5,0-11.1-.7-16.6-2.2-34.5-9.1-55.1-44.5-46-79s44.5-55.1,79-46c16.7,4.4,30.7,15.1,39.4,30s11.1,32.3,6.6,49c-4.4,16.7-15.1,30.7-30,39.4-10,5.8-21.1,8.8-32.4,8.8Zm-.1-117.4c-23.3,0-44.7,15.6-50.9,39.2-7.4,28.1,9.4,56.9,37.5,64.4c13.6,3.6,27.8,1.7,39.9-5.4c12.2-7.1,20.8-18.5,24.4-32.1s1.7-27.8-5.4-39.9c-7.1-12.2-18.5-20.8-32.1-24.4-4.5-1.2-9-1.8-13.4-1.8Z" fill="#91000a"/></g></g></svg>